<svg width="38" height="38" viewBox="0 0 38 38" fill="none" xmlns="http://www.w3.org/2000/svg">
<path d="M32.3 0H5.7C4.18827 0 2.73845 0.600534 1.66949 1.66949C0.600534 2.73845 0 4.18827 0 5.7V32.3C0 33.8117 0.600534 35.2616 1.66949 36.3305C2.73845 37.3995 4.18827 38 5.7 38H32.3C33.8117 38 35.2616 37.3995 36.3305 36.3305C37.3995 35.2616 38 33.8117 38 32.3V5.7C38 4.18827 37.3995 2.73845 36.3305 1.66949C35.2616 0.600534 33.8117 0 32.3 0ZM15.2 9.5C15.9516 9.5 16.6863 9.72287 17.3112 10.1404C17.9361 10.558 18.4231 11.1514 18.7107 11.8458C18.9984 12.5402 19.0736 13.3042 18.927 14.0413C18.7804 14.7785 18.4184 15.4556 17.887 15.987C17.3556 16.5184 16.6785 16.8804 15.9413 17.027C15.2042 17.1736 14.4402 17.0984 13.7458 16.8107C13.0514 16.5231 12.458 16.0361 12.0404 15.4112C11.6229 14.7863 11.4 14.0516 11.4 13.3C11.4 12.2922 11.8004 11.3256 12.513 10.613C13.2256 9.90036 14.1922 9.5 15.2 9.5ZM10.431 34.2H5.7C5.29784 34.1931 4.90823 34.0588 4.58728 33.8164C4.26633 33.574 4.03058 33.236 3.914 32.851L9.785 25.802C9.97426 25.5903 10.2054 25.4203 10.4637 25.3025C10.7221 25.1848 11.0021 25.122 11.286 25.118C11.5745 25.1238 11.8579 25.1953 12.1147 25.327C12.3715 25.4586 12.5949 25.6471 12.768 25.878L14.668 28.405L10.431 34.2ZM34.2 32.3C34.2 32.8039 33.9998 33.2872 33.6435 33.6435C33.2872 33.9998 32.8039 34.2 32.3 34.2H15.2L25.593 19.912C25.7542 19.6896 25.9616 19.5048 26.201 19.3704C26.4405 19.2359 26.7062 19.1549 26.98 19.133C27.2552 19.1102 27.5321 19.1478 27.7913 19.2429C28.0505 19.3381 28.2859 19.4886 28.481 19.684L34.2 25.479V32.3Z" fill="#73798C"/>
</svg>
