<svg width="38" height="38" viewBox="0 0 38 38" fill="none" xmlns="http://www.w3.org/2000/svg">
<path d="M22.1667 0V7.9103C22.1667 10.3793 24.0505 12.4084 26.4592 12.6386L26.9167 12.6603H34.8333V16.0936C36.5363 16.6955 37.7936 18.241 37.9769 20.1019L38 20.5733V33.25C38 35.7192 36.1161 37.7481 33.7074 37.9783L33.25 38H4.75C2.28095 38 0.251911 36.1164 0.0217438 33.7075L0 33.25V20.5733C0 18.6642 1.12624 17.0182 2.75057 16.2633L3.16667 16.0936V4.75C3.16667 2.28098 5.05047 0.251914 7.45921 0.0217438L7.91667 0H22.1667ZM33.25 18.99H4.75C3.87556 18.99 3.16667 19.6989 3.16667 20.5733V33.25C3.16667 34.1246 3.87556 34.8333 4.75 34.8333H33.25C34.1243 34.8333 34.8333 34.1246 34.8333 33.25V20.5733C34.8333 19.6989 34.1243 18.99 33.25 18.99ZM10.5544 22.17C12.595 22.17 14.2492 23.8242 14.2492 25.865C14.2492 27.7695 12.8082 29.3373 10.957 29.5379L10.5544 29.5595H9.49924V30.0868C9.49924 30.9611 8.79035 31.6701 7.91591 31.6701C7.1386 31.6701 6.49214 31.1099 6.35808 30.3714L6.33257 30.0868V23.7533C6.33257 22.976 6.89266 22.3295 7.63129 22.1955L7.91591 22.17H10.5544ZM18.9992 22.17C21.6225 22.17 23.7492 24.2966 23.7492 26.9201C23.7492 29.3891 21.8653 31.4182 19.4566 31.6484L18.9992 31.6701H17.4113C16.634 31.6701 15.9875 31.1099 15.8534 30.3714L15.8279 30.0868V23.7533C15.8279 22.976 16.388 22.3295 17.1266 22.1955L17.4113 22.17H18.9992ZM30.0795 22.17C30.9539 22.17 31.6629 22.8788 31.6629 23.7533C31.6629 24.6277 30.9539 25.3368 30.0795 25.3368H28.4994L28.4981 26.3957H30.0795C30.9539 26.3957 31.6629 27.1047 31.6629 27.9791C31.6629 28.8537 30.9539 29.5624 30.0795 29.5624H28.5L28.5016 30.0827C28.5038 30.957 27.7967 31.6679 26.9221 31.6698C26.0477 31.672 25.3371 30.9652 25.3349 30.0906L25.3295 27.9772L25.3349 23.7513C25.3359 22.8776 26.0446 22.17 26.9182 22.17H30.0795ZM18.9992 25.3368L18.9946 28.5035C19.8736 28.5035 20.5825 27.7944 20.5825 26.9201C20.5825 26.0455 19.8736 25.3368 18.9992 25.3368ZM10.5544 25.3368H9.49924V26.3929H10.5544C10.8461 26.3929 11.0826 26.1566 11.0826 25.865C11.0826 25.6314 10.9312 25.4335 10.7213 25.3637L10.5544 25.3368ZM25.3333 0.935781L33.9011 9.49363H26.9167C26.0424 9.49363 25.3333 8.78474 25.3333 7.9103V0.935781Z" fill="#73798C"/>
</svg>
